<?xml version="1.0" encoding="utf-8"?>
<svg version="1.1" xmlns:xlink="http://www.w3.org/1999/xlink" width="200px" height="45px" xmlns="http://www.w3.org/2000/svg">
  <defs>
    <path d="M 0 0  L 189.44 0  L 189.44 42.15  L 0 42.15  Z " fill-rule="evenodd" fill="black" id="path23" />
    <clipPath id="clip24">
      <use xlink:href="#path23" />
    </clipPath>
    <defs>
      <style>.cls-1{fill:#b4ac4c;}.cls-2{fill:#646244;}.cls-3{fill:#9e984f;}.cls-4{fill:#4c4b37;}.cls-5{fill:#cabe43;}.cls-6{fill:#e0d136;}.cls-7{fill:#51576b;}.cls-8{fill:#7d794c;}.cls-9{fill:#eada2d;}.cls-10{fill:#59573e;}.cls-11{fill:#88844f;}.cls-12{fill:#716e49;}.cls-13{fill:#f5e420;}.cls-14{fill:#d5c83d;}.cls-15{fill:#222221;}.cls-16{fill:#bfb548;}.cls-17{fill:#ffed00;}.cls-18{fill:#938e4f;}.cls-19{fill:#a9a24e;}</style>
    </defs>
    <g>
      <path class="cls-7" d="M56.04,8.38h8.46c3.66,0,6.42,2.68,6.42,6.23s-2.76,6.23-6.42,6.23h-4.35v5.83h-4.11V8.38Zm4.11,3.87v4.72h4.27c1.3,0,2.28-1.03,2.28-2.36s-.98-2.36-2.28-2.36h-4.27Z" />
      <path class="cls-7" d="M73.14,8.38h5.09l5.14,9.44,5.17-9.44h5.04V26.68h-4.11V14.48l-4.96,9.12h-2.33l-4.93-9.12v12.2h-4.11V8.38Z" />
      <path class="cls-7" d="M97.06,8.38h8.46c3.66,0,6.42,2.68,6.42,6.23s-2.76,6.23-6.42,6.23h-4.35v5.83h-4.11V8.38Zm4.11,3.87v4.72h4.27c1.3,0,2.28-1.03,2.28-2.36s-.98-2.36-2.28-2.36h-4.27Z" />
      <path class="cls-7" d="M125.99,9.92h-5.83v-1.54h13.31v1.54h-5.83V26.68h-1.64V9.92Z" />
      <path class="cls-7" d="M134.05,17.53c0-5.38,4.11-9.47,9.52-9.47s9.55,4.08,9.55,9.47-4.11,9.47-9.55,9.47-9.52-4.08-9.52-9.47Zm17.37,0c0-4.51-3.37-7.88-7.85-7.88s-7.85,3.37-7.85,7.88,3.39,7.88,7.85,7.88,7.85-3.37,7.85-7.88Z" />
      <path class="cls-7" d="M155.82,17.53c0-5.38,4.11-9.47,9.52-9.47s9.55,4.08,9.55,9.47-4.11,9.47-9.55,9.47-9.52-4.08-9.52-9.47Zm17.37,0c0-4.51-3.37-7.88-7.85-7.88s-7.85,3.37-7.85,7.88,3.39,7.88,7.85,7.88,7.85-3.37,7.85-7.88Z" />
      <path class="cls-7" d="M178.6,8.38h1.62V25.14h9.23v1.54h-10.85V8.38Z" />
    </g>
    <g>
      <path class="cls-7" d="M56.18,33.37h2.67c.89,0,1.56,.66,1.56,1.54,0,.63-.37,1.16-.85,1.38,.75,.15,1.26,.81,1.26,1.62,0,.96-.72,1.67-1.69,1.67h-2.95v-6.21Zm.54,.5v2.24h2.02c.6,0,1.11-.49,1.11-1.12s-.48-1.12-1.11-1.12h-2.02Zm0,2.72v2.48h2.3c.7,0,1.22-.54,1.22-1.25s-.52-1.23-1.22-1.23h-2.3Z" />
      <path class="cls-7" d="M63.51,37.2l-2.55-3.83h.64l2.2,3.29,2.19-3.29h.63l-2.55,3.83v2.38h-.56v-2.38Z" />
      <path class="cls-7" d="M69.89,33.37h2.61c1.08,0,1.9,.81,1.9,1.87s-.82,1.88-1.9,1.88h-2.06v2.46h-.55v-6.21Zm.55,.52v2.71h2.05c.76,0,1.33-.58,1.33-1.36s-.58-1.35-1.33-1.35h-2.05Z" />
      <path class="cls-7" d="M75.54,33.37h.59l3.94,5.32v-5.32h.56v6.21h-.6l-3.94-5.32v5.32h-.55v-6.21Z" />
      <path class="cls-7" d="M81.88,36.47c0-1.83,1.4-3.21,3.23-3.21s3.24,1.39,3.24,3.21-1.4,3.21-3.24,3.21-3.23-1.39-3.23-3.21Zm5.9,0c0-1.53-1.14-2.67-2.67-2.67s-2.66,1.14-2.66,2.67,1.15,2.67,2.66,2.67,2.67-1.14,2.67-2.67Z" />
      <path class="cls-7" d="M91.61,36.47c0-1.83,1.4-3.21,3.23-3.21,1.38,0,2.51,.76,2.96,1.9h-.62c-.43-.83-1.3-1.36-2.34-1.36-1.51,0-2.66,1.14-2.66,2.67s1.15,2.67,2.66,2.67c1.39,0,2.46-.94,2.58-2.25h-2.34v-.5h2.92v.18c0,1.78-1.35,3.12-3.16,3.12s-3.23-1.39-3.23-3.21Z" />
      <path class="cls-7" d="M99.26,33.37h2.58c1.04,0,1.84,.77,1.84,1.8s-.79,1.78-1.83,1.78h0l2.02,2.63h-.69l-2-2.63h-1.36v2.63h-.55v-6.21Zm.55,.52v2.58h2.03c.72,0,1.27-.55,1.27-1.29s-.55-1.29-1.27-1.29h-2.03Z" />
      <path class="cls-7" d="M104.56,36.47c0-1.83,1.4-3.21,3.23-3.21s3.24,1.39,3.24,3.21-1.4,3.21-3.24,3.21-3.23-1.39-3.23-3.21Zm5.9,0c0-1.53-1.14-2.67-2.67-2.67s-2.66,1.14-2.66,2.67,1.15,2.67,2.66,2.67,2.67-1.14,2.67-2.67Z" />
      <path class="cls-7" d="M112.13,37.21v-3.84h.56v3.84c0,1.1,.83,1.94,1.94,1.94s1.94-.84,1.94-1.94v-3.84h.56v3.84c0,1.41-1.08,2.48-2.49,2.48s-2.5-1.06-2.5-2.48Z" />
      <path class="cls-7" d="M118.57,33.37h2.61c1.08,0,1.9,.81,1.9,1.87s-.82,1.88-1.9,1.88h-2.06v2.46h-.55v-6.21Zm.55,.52v2.71h2.05c.76,0,1.33-.58,1.33-1.36s-.58-1.35-1.33-1.35h-2.05Z" />
    </g>
    <g>
      <path class="cls-4" d="M41.96,10.71c.26-.07,.52-.13,.79-.2-.25-.43-.5-.84-.77-1.25-.15,.04-.31,.08-.46,.12,.15,.44,.3,.88,.45,1.33" />
      <path class="cls-4" d="M45.94,23.14c0-.22,.02-.43,.02-.65,0-3.58-.79-6.97-2.19-10.02-.38,.09-.75,.18-1.13,.27,1.1,3.37,2.21,6.87,3.3,10.4" />
      <path class="cls-4" d="M42.56,12.51c.36-.09,.73-.18,1.1-.27-.22-.48-.47-.94-.72-1.4-.29,.07-.57,.14-.86,.22,.16,.48,.32,.97,.48,1.45" />
      <path class="cls-4" d="M41.01,7.91c.11,.33,.23,.66,.34,1,.11-.03,.22-.06,.33-.08-.22-.31-.44-.61-.67-.91" />
      <path class="cls-10" d="M38.99,9.55c.69-.19,1.4-.38,2.11-.57-.12-.41-.24-.82-.36-1.22-.71,.19-1.42,.39-2.11,.59,.12,.4,.24,.8,.36,1.2" />
      <path class="cls-10" d="M42.65,22.13c.72,2.51,1.45,5.06,2.19,7.6,.46-1.46,.79-2.98,.96-4.55-.36-1.24-.71-2.46-1.05-3.66-.89-3.1-1.72-5.99-2.51-8.68-.71,.18-1.42,.36-2.12,.53,.86,2.95,1.71,5.92,2.53,8.75" />
      <path class="cls-10" d="M37.9,5.95c.37-.11,.74-.22,1.12-.33-.27-.27-.55-.54-.83-.8-.19,.06-.39,.12-.57,.18,.1,.32,.2,.63,.29,.95" />
      <path class="cls-10" d="M38.45,7.75c.65-.19,1.32-.38,1.99-.56-.27-.33-.55-.64-.84-.95-.5,.14-.99,.29-1.48,.44,.11,.36,.22,.72,.33,1.08" />
      <path class="cls-10" d="M37.31,4.06s.02,.06,.03,.09l.06-.02-.09-.08Z" />
      <path class="cls-10" d="M42.17,12.61c-.14-.49-.29-.98-.43-1.46-.72,.18-1.42,.37-2.12,.55,.14,.48,.28,.96,.43,1.45,.7-.18,1.4-.36,2.12-.53" />
      <path class="cls-10" d="M41.64,10.8c-.13-.45-.27-.9-.4-1.34-.71,.19-1.42,.38-2.11,.57,.13,.44,.26,.88,.39,1.32,.69-.18,1.4-.37,2.12-.55" />
      <path class="cls-2" d="M42.92,34.15c.51-.92,.96-1.87,1.35-2.86-1.72-6.24-3.29-12.34-4.66-17.79-.67,.17-1.33,.35-1.99,.52,1.56,6.23,3.34,13.16,5.29,20.13" />
      <path class="cls-2" d="M35.03,3.02c.2-.08,.4-.16,.6-.24-.22-.15-.45-.3-.67-.45l-.04,.02c.04,.22,.07,.44,.11,.67" />
      <path class="cls-2" d="M38.65,9.64c-.1-.41-.2-.81-.3-1.21-.67,.2-1.32,.4-1.97,.61,.1,.39,.19,.78,.29,1.17,.65-.19,1.31-.39,1.98-.57" />
      <path class="cls-2" d="M35.56,5.72c.08,.31,.15,.61,.23,.92,.64-.22,1.29-.44,1.96-.65-.08-.33-.16-.65-.24-.97-.66,.22-1.31,.45-1.94,.69" />
      <path class="cls-2" d="M35.35,4.85c.63-.24,1.28-.47,1.94-.69-.01-.06-.03-.11-.04-.17-.21-.17-.42-.34-.64-.5-.48,.18-.94,.37-1.4,.56,.05,.26,.09,.53,.14,.79" />
      <path class="cls-2" d="M39.11,11.46c-.11-.45-.22-.89-.33-1.33-.67,.19-1.33,.38-1.98,.57,.11,.43,.22,.87,.33,1.3,.65-.18,1.31-.36,1.98-.54" />
      <path class="cls-2" d="M37.93,6.73c-.66,.21-1.32,.43-1.96,.65,.03,.11,.06,.23,.08,.34,.06,.23,.12,.46,.17,.7,.65-.21,1.3-.41,1.97-.6-.05-.2-.1-.4-.15-.59-.04-.17-.08-.33-.12-.5" />
      <path class="cls-2" d="M39.56,13.27c-.12-.49-.25-.98-.37-1.46-.67,.18-1.33,.36-1.98,.54,.12,.47,.24,.95,.36,1.44,.65-.17,1.32-.35,1.99-.52" />
      <path class="cls-12" d="M36.72,12.12c-.09-.44-.17-.88-.26-1.32-.66,.2-1.31,.4-1.95,.61,.08,.42,.17,.85,.25,1.28,.64-.19,1.29-.38,1.96-.57" />
      <path class="cls-12" d="M37.08,13.92c-.1-.49-.2-.97-.29-1.45-.67,.19-1.32,.38-1.96,.57,.09,.47,.19,.94,.29,1.42,.65-.18,1.3-.36,1.97-.54" />
      <path class="cls-12" d="M38.36,28.85c.69,2.79,1.45,5.72,2.27,8.7,.54-.67,1.04-1.37,1.51-2.09-1.97-7.34-3.66-14.72-5.01-21.3-.66,.18-1.32,.36-1.97,.54,.95,4.63,2.04,9.48,3.19,14.16" />
      <path class="cls-12" d="M33.59,6.53c.05,.29,.1,.58,.16,.87,.63-.24,1.28-.48,1.93-.71-.06-.32-.11-.63-.17-.94-.66,.25-1.29,.51-1.92,.79" />
      <path class="cls-12" d="M33.11,1.99c.23-.13,.46-.24,.7-.36-.13-.07-.25-.15-.38-.22-.11,.08-.22,.16-.33,.24,0,.11,.01,.23,.02,.35" />
      <path class="cls-12" d="M33.89,8.15c.06,.33,.12,.66,.19,.99,.64-.22,1.29-.44,1.95-.65-.07-.36-.13-.71-.2-1.06-.66,.23-1.3,.47-1.93,.72" />
      <path class="cls-12" d="M36.36,10.31c-.08-.4-.15-.79-.23-1.18-.66,.21-1.31,.44-1.94,.66,.07,.37,.14,.75,.22,1.13,.64-.21,1.29-.41,1.95-.61" />
      <path class="cls-12" d="M33.19,3.29c.01,.18,.03,.36,.04,.55,.59-.29,1.19-.56,1.81-.82-.04-.22-.08-.45-.11-.67-.6,.29-1.18,.6-1.73,.94" />
      <path class="cls-12" d="M33.31,4.94v.07c.04,.2,.08,.41,.11,.62,.63-.27,1.27-.53,1.92-.78-.05-.27-.09-.53-.14-.79-.65,.28-1.28,.57-1.9,.88" />
      <path class="cls-8" d="M33.99,11.06c-.05-.39-.1-.77-.15-1.14-.6,.21-1.19,.43-1.76,.66,.04,.36,.09,.73,.14,1.08,.58-.2,1.17-.4,1.77-.59" />
      <path class="cls-8" d="M33.58,20.49c.71,3.94,1.53,7.86,2.43,11.68,.79,1.45,1.23,3.04,1.23,4.71,0,.06,0,.12,0,.18,.28,1.07,.57,2.13,.86,3.18,.52-.47,1.01-.97,1.49-1.48-2.22-8.2-3.94-16.57-5.05-23.88-.61,.17-1.2,.34-1.79,.51,.35,2.3,.67,4.13,.84,5.11" />
      <path class="cls-8" d="M31.89,8.97c.04,.31,.07,.63,.11,.94,.58-.22,1.17-.44,1.77-.65-.04-.34-.08-.68-.12-1.01-.6,.24-1.18,.48-1.76,.72" />
      <path class="cls-8" d="M34.49,14.64c-.07-.48-.14-.96-.21-1.43-.61,.18-1.2,.36-1.78,.55,.07,.48,.14,.94,.2,1.39,.59-.17,1.19-.34,1.79-.51" />
      <path class="cls-8" d="M34.23,12.84c-.06-.43-.12-.86-.18-1.29-.6,.2-1.19,.39-1.77,.6,.06,.42,.11,.83,.17,1.24,.58-.18,1.18-.37,1.78-.55" />
      <path class="cls-8" d="M31.72,7.4c.03,.26,.05,.53,.08,.79,.57-.25,1.16-.49,1.76-.72-.03-.3-.06-.59-.09-.89-.59,.26-1.18,.53-1.75,.82" />
      <path class="cls-8" d="M31.66,4.29c0,.13-.01,.25-.02,.38,.52-.29,1.05-.57,1.59-.83-.01-.18-.03-.37-.04-.55-.53,.32-1.04,.65-1.53,1" />
      <path class="cls-8" d="M31.77,2.73v.08c.43-.28,.88-.56,1.34-.82,0-.12-.01-.23-.02-.35-.46,.34-.9,.7-1.32,1.08" />
      <path class="cls-8" d="M33.31,4.94c-.59,.3-1.16,.62-1.72,.96,0,.05,0,.09,0,.14,.01,.14,.03,.28,.04,.42,.57-.28,1.15-.55,1.75-.8-.02-.22-.04-.43-.06-.64v-.07Z" />
      <path class="cls-11" d="M31.58,7.47c-.58,.29-1.14,.6-1.69,.91,0,.22,0,.44,0,.66,.55-.26,1.12-.52,1.69-.77,0-.27,0-.54,0-.81" />
      <path class="cls-11" d="M31.71,11.83c-.02-.37-.04-.73-.05-1.09-.57,.22-1.13,.45-1.68,.69,.02,.34,.03,.67,.05,1.02,.55-.21,1.11-.41,1.68-.61" />
      <path class="cls-11" d="M34.02,29.52c-.95-4.85-1.64-9.58-2.04-13.92-.57,.17-1.13,.33-1.68,.5,.35,3.72,.92,7.68,1.66,11.72,.75,.51,1.44,1.08,2.06,1.7" />
      <path class="cls-11" d="M31.82,13.59c-.03-.42-.06-.84-.08-1.25-.57,.2-1.13,.4-1.68,.61,.03,.39,.05,.79,.08,1.19,.55-.18,1.11-.36,1.68-.55" />
      <path class="cls-11" d="M31.96,15.36c-.04-.47-.08-.94-.12-1.4-.57,.18-1.13,.36-1.68,.55,.04,.45,.07,.9,.12,1.36,.55-.17,1.11-.34,1.68-.5" />
      <path class="cls-11" d="M36.82,41.3c-.08-.3-.17-.61-.25-.91-.24,.61-.53,1.19-.88,1.75,.39-.27,.77-.55,1.14-.85" />
      <path class="cls-11" d="M29.91,9.88c0,.28,.02,.56,.03,.85,.55-.23,1.11-.45,1.69-.68-.01-.32-.02-.64-.03-.95-.57,.25-1.14,.52-1.69,.78" />
      <path class="cls-11" d="M30.3,5.34s-.02,.09-.03,.14c.44-.28,.9-.55,1.36-.81,0-.13,.01-.25,.02-.38-.47,.34-.92,.69-1.35,1.05" />
      <path class="cls-11" d="M31.59,5.9c-.53,.32-1.05,.64-1.56,.99-.02,.14-.04,.28-.06,.43,.52-.29,1.06-.56,1.61-.83,0-.15,0-.3,0-.45,0-.05,0-.09,0-.14" />
      <path class="cls-11" d="M31.45,3.03c.1-.07,.2-.14,.31-.21v-.08c-.1,.1-.21,.2-.31,.3" />
      <path class="cls-18" d="M28.04,10.84c-.02,.24-.03,.49-.04,.73,.53-.24,1.08-.48,1.63-.72,.02-.29,.04-.58,.06-.87-.56,.28-1.11,.56-1.65,.85" />
      <path class="cls-18" d="M30.4,26.88c-.5-3.64-.8-7.21-.87-10.54-.53,.16-1.06,.33-1.58,.5,.09,2.96,.35,6.09,.76,9.28,.59,.23,1.15,.48,1.69,.76" />
      <path class="cls-18" d="M29.53,16.09c0-.46-.01-.92-.01-1.37-.54,.18-1.07,.37-1.59,.55,0,.43,.01,.87,.02,1.31,.52-.17,1.05-.33,1.58-.5" />
      <path class="cls-18" d="M28.14,9.44c-.01,.17-.03,.34-.04,.5,.54-.29,1.1-.57,1.67-.84,.02-.24,.05-.47,.07-.7-.58,.33-1.15,.68-1.7,1.04" />
      <path class="cls-18" d="M27.92,14.89c.52-.18,1.05-.37,1.6-.55,0-.4,0-.8,.02-1.2-.54,.21-1.08,.42-1.61,.63,0,.37,0,.75,0,1.12" />
      <path class="cls-18" d="M29.55,12.61c.01-.35,.03-.69,.04-1.03-.55,.24-1.09,.48-1.63,.73-.01,.31-.02,.62-.03,.93,.53-.21,1.07-.42,1.61-.62" />
      <path class="cls-18" d="M28.51,8.02c-.02,.05-.03,.11-.05,.16,.49-.3,1-.59,1.51-.87,.02-.14,.04-.29,.06-.43-.53,.36-1.03,.74-1.53,1.13" />
      <path class="cls-18" d="M30.89,.22c-.19-.08-.38-.15-.57-.22-.31,.69-.59,1.43-.84,2.22,.43-.72,.9-1.39,1.4-2" />
      <path class="cls-18" d="M29.8,5.79c.16-.11,.32-.21,.48-.31,0-.05,.02-.09,.03-.14-.17,.15-.34,.3-.51,.45" />
      <path class="cls-3" d="M27.22,15.14c.03-.38,.07-.76,.12-1.14-.5,.2-.99,.41-1.48,.62-.04,.35-.07,.7-.1,1.05,.48-.18,.96-.36,1.46-.54" />
      <path class="cls-3" d="M27.41,13.45c.04-.32,.08-.63,.13-.94-.51,.24-1.02,.49-1.51,.74-.04,.27-.07,.54-.1,.82,.49-.21,.98-.42,1.48-.62" />
      <path class="cls-3" d="M26.23,11.86c-.03,.2-.06,.39-.09,.59,.5-.25,1.01-.49,1.53-.73,.04-.26,.09-.51,.14-.76-.54,.29-1.06,.59-1.57,.9" />
      <path class="cls-3" d="M27.09,16.86c.03-.44,.06-.89,.09-1.32-.49,.18-.98,.36-1.45,.53-.03,.42-.06,.84-.08,1.26,.47-.16,.95-.32,1.44-.47" />
      <path class="cls-3" d="M26.71,10.42c-.05,.12-.1,.24-.14,.37,.47-.27,.95-.53,1.44-.79,.04-.18,.08-.37,.13-.55-.49,.32-.96,.64-1.42,.97" />
      <path class="cls-3" d="M25.75,25.26c.49,.1,.98,.22,1.45,.35-.22-2.91-.27-5.77-.12-8.5-.48,.16-.96,.31-1.43,.47-.11,2.44-.08,5.01,.11,7.68" />
      <path class="cls-3" d="M27.77,8.63c.23-.15,.46-.3,.7-.44,.02-.05,.03-.11,.05-.16-.25,.2-.5,.4-.74,.61" />
      <path class="cls-3" d="M32.13,.76c-.41-.19-.83-.37-1.25-.54-.5,.61-.97,1.27-1.4,2-.53,.88-1,1.85-1.43,2.89,1.14-1.69,2.5-3.16,4.08-4.35" />
      <path class="cls-19" d="M25.13,15.92c.07-.36,.15-.72,.23-1.07-.48,.21-.96,.43-1.43,.65-.07,.32-.13,.64-.19,.96,.45-.18,.91-.36,1.38-.54" />
      <path class="cls-19" d="M24.55,12.93c-.04,.13-.07,.26-.11,.4,.5-.27,1.01-.54,1.54-.8,.07-.22,.13-.43,.2-.64-.56,.34-1.1,.69-1.63,1.04" />
      <path class="cls-19" d="M23,24.92c.43,.02,.85,.06,1.27,.1,0-2.46,.18-4.86,.52-7.15-.45,.15-.9,.31-1.34,.46-.29,2.13-.43,4.33-.45,6.58" />
      <path class="cls-19" d="M24.83,17.62c.07-.43,.14-.86,.22-1.28-.47,.18-.93,.36-1.37,.54-.07,.4-.13,.8-.19,1.2,.44-.15,.89-.31,1.34-.46" />
      <path class="cls-19" d="M25.5,14.25c.07-.28,.14-.57,.22-.85-.51,.26-1.02,.53-1.51,.81-.06,.23-.11,.46-.16,.69,.47-.22,.95-.43,1.44-.65" />
      <path class="cls-19" d="M25.26,11.54l-.03,.05c.44-.27,.88-.54,1.34-.8,.05-.12,.09-.25,.14-.37-.5,.36-.98,.73-1.45,1.12" />
      <path class="cls-19" d="M31.45,3.03c.1-.1,.21-.2,.32-.3,.42-.38,.86-.75,1.32-1.08,.11-.08,.22-.16,.33-.24-.42-.23-.85-.44-1.29-.64-1.58,1.2-2.94,2.67-4.08,4.35-.47,.7-.91,1.43-1.31,2.2,1.33-1.61,2.9-3.06,4.71-4.29" />
      <path class="cls-1" d="M22.54,18.41c.11-.41,.22-.81,.34-1.22-.46,.19-.92,.38-1.36,.57-.1,.37-.2,.74-.28,1.12,.43-.16,.86-.32,1.31-.48" />
      <path class="cls-1" d="M21.46,24.9c.17-2.11,.5-4.19,1.01-6.21-.44,.16-.87,.32-1.29,.47-.43,1.9-.72,3.84-.87,5.8,.38-.03,.77-.05,1.16-.06" />
      <path class="cls-1" d="M22.94,14.06c-.03,.05-.07,.11-.1,.16,.48-.28,.97-.56,1.47-.83,.07-.15,.13-.3,.2-.44-.54,.36-1.07,.73-1.57,1.11" />
      <path class="cls-1" d="M29.8,5.79c.17-.15,.33-.3,.51-.45,.43-.37,.88-.72,1.35-1.05,.49-.35,1-.68,1.53-1,.56-.33,1.13-.65,1.73-.94l.04-.02c-.38-.24-.77-.48-1.16-.7-.23,.12-.47,.24-.7,.36-.46,.26-.91,.53-1.35,.82-.11,.07-.21,.14-.31,.21-1.81,1.23-3.38,2.67-4.71,4.29-.72,.87-1.38,1.79-1.96,2.75,1.48-1.61,3.15-3.04,5.02-4.27" />
      <path class="cls-1" d="M23.59,15.11c.09-.24,.19-.48,.28-.72-.55,.31-1.08,.62-1.6,.94-.06,.17-.12,.33-.18,.5,.49-.24,.98-.48,1.49-.72" />
      <path class="cls-1" d="M23.02,16.75c.1-.33,.22-.66,.33-.98-.5,.24-.98,.48-1.46,.72-.09,.28-.18,.56-.26,.84,.45-.19,.91-.39,1.38-.58" />
      <path class="cls-1" d="M25.1,11.67s.08-.05,.13-.08l.03-.05c-.05,.04-.1,.09-.16,.13" />
      <path class="cls-16" d="M18.69,25.17c.32-1.97,.82-3.86,1.48-5.63-.41,.16-.82,.32-1.22,.47-.58,1.71-1.01,3.51-1.3,5.37,.34-.08,.69-.15,1.04-.21" />
      <path class="cls-16" d="M20.28,19.25c.15-.39,.3-.77,.47-1.14-.45,.2-.89,.4-1.32,.6-.13,.34-.25,.68-.37,1.02,.4-.16,.81-.32,1.23-.47" />
      <path class="cls-16" d="M20.97,17.62c.13-.29,.27-.58,.42-.87-.51,.26-1,.53-1.48,.8-.1,.22-.19,.45-.28,.67,.44-.2,.89-.4,1.35-.6" />
      <path class="cls-16" d="M21.78,16c.1-.18,.21-.36,.31-.54-.56,.35-1.1,.71-1.63,1.07-.07,.09-.13,.18-.19,.26,.49-.27,1-.53,1.51-.79" />
      <path class="cls-16" d="M22.36,14.51c.16-.1,.32-.19,.49-.29,.03-.05,.07-.11,.1-.16-.2,.15-.39,.3-.59,.44" />
      <path class="cls-16" d="M27.77,8.63c.24-.21,.49-.41,.74-.61,.49-.39,1-.77,1.53-1.13,.5-.34,1.02-.67,1.56-.99,.56-.33,1.13-.66,1.72-.96,.61-.31,1.25-.6,1.9-.88,.46-.2,.92-.38,1.4-.56-.32-.25-.65-.49-.98-.72-.2,.08-.4,.15-.6,.24-.62,.26-1.22,.53-1.81,.82-.54,.26-1.07,.54-1.59,.83-.46,.26-.92,.53-1.36,.81-.16,.1-.32,.21-.48,.31-1.87,1.24-3.54,2.66-5.02,4.27-.74,.8-1.42,1.66-2.06,2.56,1.5-1.47,3.19-2.8,5.05-3.99" />
      <path class="cls-5" d="M18.22,20.06c.19-.36,.39-.71,.59-1.06-.48,.23-.94,.45-1.39,.68-.16,.3-.31,.6-.45,.9,.41-.17,.83-.34,1.25-.52" />
      <path class="cls-5" d="M15.98,25.86c.49-1.91,1.18-3.74,2.07-5.48-.42,.17-.83,.34-1.23,.51-.79,1.71-1.41,3.49-1.84,5.35,.33-.13,.66-.26,1-.37" />
      <path class="cls-5" d="M19.14,18.44c.15-.25,.32-.49,.48-.74-.57,.32-1.12,.64-1.65,.97-.09,.15-.18,.3-.26,.46,.47-.23,.94-.46,1.43-.69" />
      <path class="cls-5" d="M25.1,11.67c.05-.04,.1-.09,.16-.13,.47-.38,.95-.76,1.45-1.12,.46-.33,.94-.66,1.42-.97h0c.55-.36,1.12-.71,1.7-1.04l.04-.03c.55-.31,1.11-.62,1.69-.91,.05-.02,.1-.05,.14-.07,.57-.28,1.15-.55,1.75-.82,.04-.02,.08-.04,.12-.05,.63-.27,1.27-.54,1.92-.79l.05-.02c.64-.24,1.28-.47,1.94-.69,.03-.01,.07-.02,.1-.03,.19-.06,.38-.12,.57-.18-.25-.23-.52-.46-.78-.68l-.06,.02-.05,.02c-.66,.22-1.31,.45-1.94,.69-.66,.25-1.29,.51-1.92,.78l-.05,.02c-.6,.26-1.18,.53-1.75,.8l-.05,.02c-.55,.27-1.08,.54-1.61,.83-.51,.28-1.02,.57-1.51,.87-.24,.14-.46,.3-.7,.44-1.86,1.2-3.55,2.53-5.05,3.99-.8,.78-1.55,1.6-2.25,2.46,1.4-1.21,2.94-2.35,4.63-3.41" />
      <path class="cls-5" d="M20.26,16.79c.06-.09,.13-.18,.19-.26-.35,.24-.69,.48-1.03,.73,.28-.16,.55-.31,.84-.46" />
      <path class="cls-14" d="M16.17,20.91c.23-.32,.46-.64,.7-.96-.53,.27-1.04,.54-1.53,.81-.16,.24-.31,.47-.47,.71,.42-.19,.85-.38,1.29-.57" />
      <path class="cls-14" d="M13.02,27.18c.68-2.08,1.66-4.05,2.92-5.92-.43,.19-.86,.38-1.27,.56-1.15,1.89-2.03,3.88-2.63,5.97,.32-.22,.65-.42,.99-.61" />
      <path class="cls-14" d="M17.42,19.28c.15-.18,.3-.36,.45-.54-.47,.29-.92,.58-1.36,.87-.11,.1-.21,.2-.31,.29,.4-.21,.8-.42,1.22-.63" />
      <path class="cls-14" d="M22.36,14.51c.19-.15,.39-.3,.59-.44,.51-.38,1.03-.75,1.57-1.11l.03-.02c.53-.35,1.07-.7,1.63-1.04l.05-.03c.51-.31,1.04-.6,1.57-.9,.08-.04,.15-.08,.23-.12,.54-.29,1.09-.57,1.65-.85,.07-.04,.15-.07,.22-.11,.55-.27,1.11-.53,1.69-.78,.1-.04,.19-.08,.29-.13,.57-.25,1.16-.49,1.76-.72,.08-.03,.16-.06,.24-.09,.63-.25,1.28-.48,1.93-.72,.05-.02,.1-.04,.15-.05,.64-.22,1.29-.44,1.96-.65,.06-.02,.13-.04,.19-.06,.49-.15,.98-.3,1.48-.44-.19-.21-.39-.41-.59-.62-.37,.11-.75,.22-1.12,.33-.05,.02-.1,.03-.15,.05-.66,.21-1.32,.42-1.96,.65-.04,.01-.07,.03-.11,.04-.66,.23-1.3,.47-1.93,.71-.06,.02-.13,.05-.19,.07-.6,.23-1.18,.47-1.76,.72-.07,.03-.15,.06-.22,.09-.57,.25-1.14,.5-1.69,.77-.04,.02-.08,.04-.12,.06-.57,.27-1.12,.55-1.67,.84-.03,.02-.06,.03-.09,.05-.49,.26-.97,.52-1.44,.79-.46,.26-.9,.53-1.34,.8-.04,.03-.08,.05-.13,.08-1.69,1.06-3.24,2.2-4.63,3.41-.95,.83-1.84,1.68-2.66,2.57,1.38-1.1,2.9-2.15,4.54-3.14" />
      <path class="cls-6" d="M14.04,22.11c-.48,.22-.94,.44-1.39,.66-2.1,2.69-3.52,5.58-4.21,8.59,.3-.45,.63-.89,1-1.3,.89-2.82,2.44-5.48,4.61-7.95" />
      <path class="cls-6" d="M15.28,19.86c1.27-.9,2.65-1.76,4.15-2.6,.34-.24,.68-.49,1.03-.73,.53-.36,1.07-.72,1.63-1.07,.07-.04,.13-.08,.19-.12,.52-.32,1.05-.63,1.6-.94,.11-.06,.23-.12,.34-.19,.49-.27,.99-.54,1.51-.81,.1-.05,.2-.1,.3-.16,.5-.25,1-.5,1.51-.74,.14-.07,.28-.13,.42-.2,.53-.25,1.07-.49,1.63-.73,.13-.05,.25-.11,.38-.16,.55-.23,1.11-.46,1.68-.69,.14-.05,.28-.11,.42-.16,.58-.22,1.17-.44,1.76-.66,.12-.04,.24-.08,.35-.13,.64-.23,1.29-.45,1.94-.66,.08-.03,.17-.06,.25-.08,.65-.21,1.3-.41,1.97-.61,.09-.03,.18-.06,.28-.08,.69-.2,1.39-.4,2.11-.59,.04-.01,.09-.02,.13-.03-.14-.18-.28-.36-.43-.54-.67,.18-1.34,.37-1.99,.56-.08,.02-.17,.05-.25,.07-.67,.2-1.32,.4-1.97,.6-.07,.02-.14,.05-.22,.07-.66,.21-1.31,.43-1.95,.65-.11,.04-.21,.08-.31,.11-.6,.21-1.19,.43-1.77,.65-.12,.05-.25,.1-.37,.14-.57,.22-1.13,.45-1.69,.68-.1,.04-.21,.09-.31,.13-.55,.23-1.1,.47-1.63,.72-.11,.05-.22,.1-.33,.15-.52,.24-1.03,.48-1.53,.73-.05,.03-.11,.05-.16,.08-.52,.26-1.04,.53-1.54,.8-.04,.02-.08,.04-.13,.07-.5,.27-.99,.55-1.47,.83-.16,.1-.33,.19-.49,.29-1.65,.99-3.16,2.04-4.54,3.14-.59,.47-1.17,.95-1.72,1.45-.28,.25-.55,.51-.81,.77" />
      <path class="cls-6" d="M12.99,22.35c.46-.22,.94-.45,1.43-.67,.27-.29,.55-.58,.83-.87-.63,.35-1.24,.7-1.81,1.05-.05,.04-.09,.08-.14,.11-.1,.12-.2,.25-.31,.37" />
      <path class="cls-6" d="M16.2,19.9c.11-.1,.21-.2,.31-.29-.28,.19-.56,.38-.84,.57,.17-.09,.35-.18,.52-.28" />
      <path class="cls-9" d="M4.73,36.09c-.04,1.09,.05,2.19,.24,3.29,.21,.21,.43,.42,.65,.62-.3-1.3-.43-2.6-.39-3.89,.16-4.7,2.48-9.08,6.79-13.02-.52,.26-1.03,.52-1.52,.79-3.66,3.74-5.63,7.84-5.77,12.22" />
      <path class="cls-9" d="M13.29,21.98s.09-.08,.14-.11c-.67,.4-1.3,.8-1.89,1.21,.36-.19,.74-.37,1.12-.56,.21-.18,.42-.36,.64-.54" />
      <path class="cls-9" d="M38.65,9.64c-.67,.19-1.33,.38-1.98,.57-.11,.03-.21,.06-.31,.1-.66,.2-1.31,.4-1.95,.61-.14,.05-.28,.09-.43,.14-.6,.2-1.19,.39-1.77,.59-.17,.06-.34,.12-.51,.17-.57,.2-1.13,.4-1.68,.61-.16,.06-.32,.12-.48,.18-.55,.21-1.08,.41-1.61,.62-.18,.07-.35,.14-.53,.21-.5,.2-1,.41-1.48,.62-.14,.06-.28,.12-.42,.18-.49,.21-.97,.43-1.44,.65-.16,.07-.31,.14-.46,.22-.51,.24-1,.48-1.49,.72-.11,.06-.22,.11-.33,.17-.52,.26-1.02,.53-1.51,.79-.28,.15-.56,.31-.84,.46-1.49,.84-2.87,1.71-4.15,2.6-1.02,.72-1.97,1.46-2.85,2.21,1-.63,2.07-1.26,3.24-1.89,.27-.19,.55-.38,.84-.57,.44-.29,.89-.58,1.36-.87,.03-.02,.07-.04,.1-.06,.53-.33,1.09-.65,1.65-.97,.09-.05,.19-.11,.29-.16,.48-.27,.98-.53,1.48-.8,.17-.09,.33-.17,.5-.26,.48-.24,.96-.48,1.46-.72,.19-.09,.38-.18,.58-.27,.47-.22,.94-.43,1.43-.65,.17-.07,.34-.15,.51-.22,.48-.21,.98-.42,1.48-.62,.19-.08,.39-.16,.58-.24,.53-.21,1.06-.42,1.61-.63,.17-.07,.35-.13,.52-.2,.55-.21,1.11-.41,1.68-.61,.18-.06,.36-.13,.54-.19,.58-.2,1.17-.4,1.77-.6,.15-.05,.3-.1,.46-.15,.64-.21,1.29-.41,1.95-.61,.11-.03,.23-.07,.34-.1,.65-.19,1.31-.39,1.98-.57,.12-.03,.24-.07,.36-.1,.69-.19,1.4-.38,2.11-.57,.09-.02,.18-.05,.27-.07,.15-.04,.31-.08,.46-.12-.1-.15-.2-.29-.3-.44-.11,.03-.22,.06-.33,.08-.08,.02-.17,.04-.25,.07-.71,.19-1.42,.38-2.11,.57-.11,.03-.22,.06-.34,.1" />
      <path class="cls-13" d="M1.65,35.19c.1,.16,.2,.31,.3,.47,.46-3.43,2.59-7.45,8.17-11.58-.72,.39-1.41,.79-2.07,1.19-4.12,3.52-5.89,6.93-6.4,9.92" />
      <path class="cls-13" d="M41.64,10.8c-.72,.18-1.42,.37-2.12,.55-.14,.04-.28,.08-.42,.11-.67,.18-1.33,.36-1.98,.54-.13,.04-.27,.08-.4,.11-.67,.19-1.32,.38-1.96,.57-.18,.05-.35,.1-.53,.16-.6,.18-1.2,.36-1.78,.55-.21,.07-.42,.13-.63,.2-.57,.18-1.13,.36-1.68,.55-.21,.07-.42,.14-.62,.21-.54,.18-1.07,.37-1.6,.55-.23,.08-.47,.17-.69,.25-.5,.18-.98,.36-1.46,.54-.21,.08-.43,.16-.64,.24-.47,.18-.93,.36-1.38,.54-.24,.1-.49,.19-.73,.29-.47,.19-.93,.38-1.38,.58-.22,.1-.45,.19-.66,.29-.46,.2-.91,.4-1.35,.6-.16,.07-.32,.15-.48,.22-.49,.23-.97,.46-1.43,.69-.1,.05-.2,.1-.29,.14-.42,.21-.82,.42-1.22,.63-.18,.09-.35,.18-.52,.28-1.17,.63-2.25,1.26-3.24,1.89-1.19,.76-2.27,1.51-3.23,2.26,.74-.42,1.52-.84,2.34-1.26,.6-.4,1.23-.8,1.89-1.21,.58-.35,1.18-.7,1.81-1.05,.03-.02,.06-.03,.09-.05,.49-.27,1-.54,1.53-.81,.18-.09,.36-.19,.55-.28,.45-.23,.92-.45,1.39-.68,.2-.1,.4-.19,.61-.29,.43-.2,.87-.4,1.32-.6,.25-.11,.51-.23,.77-.34,.44-.19,.9-.38,1.36-.57,.26-.11,.52-.21,.79-.32,.45-.18,.91-.36,1.37-.54,.23-.09,.46-.18,.69-.26,.47-.18,.96-.36,1.45-.53,.24-.09,.48-.18,.73-.26,.52-.18,1.05-.37,1.59-.55,.22-.07,.43-.15,.65-.22,.55-.18,1.11-.36,1.68-.55,.22-.07,.43-.14,.65-.21,.58-.18,1.18-.37,1.78-.55,.18-.05,.37-.11,.55-.16,.64-.19,1.29-.38,1.96-.57,.14-.04,.28-.08,.42-.12,.65-.18,1.31-.36,1.98-.54,.14-.04,.29-.08,.43-.12,.69-.18,1.4-.37,2.12-.55,.11-.03,.22-.06,.34-.08,.29-.07,.57-.14,.86-.22-.06-.11-.13-.22-.19-.33-.27,.07-.53,.13-.79,.2-.11,.03-.22,.05-.32,.08" />
      <path class="cls-17" d="M42.17,12.61c-.72,.18-1.42,.36-2.12,.53-.16,.04-.33,.08-.49,.13-.67,.17-1.33,.35-1.99,.52-.16,.04-.33,.09-.49,.13-.66,.18-1.32,.36-1.97,.54-.21,.06-.42,.12-.62,.17-.61,.17-1.2,.34-1.79,.51-.25,.07-.49,.14-.74,.21-.57,.17-1.13,.33-1.68,.5-.25,.08-.51,.15-.76,.23-.54,.16-1.06,.33-1.58,.5-.28,.09-.57,.18-.85,.27-.49,.16-.97,.31-1.44,.47-.28,.09-.55,.19-.83,.28-.45,.15-.9,.31-1.34,.46-.32,.11-.63,.22-.94,.34-.44,.16-.88,.32-1.31,.48-.32,.12-.64,.24-.96,.36-.41,.16-.83,.32-1.23,.47-.28,.11-.56,.22-.83,.33-.42,.17-.84,.34-1.25,.52-.27,.11-.54,.23-.8,.34-.44,.19-.87,.38-1.29,.57-.15,.07-.31,.14-.46,.21-.49,.22-.96,.44-1.43,.67-.11,.05-.22,.11-.33,.16-.38,.18-.75,.37-1.12,.56-.82,.42-1.6,.84-2.34,1.26-4.37,2.48-7.43,5.06-9.2,7.72,.04,.08,.08,.17,.11,.25,1.56-2.42,4.21-4.77,7.94-7.04,.66-.4,1.35-.8,2.07-1.19,.13-.07,.25-.14,.38-.2,.49-.26,1-.52,1.52-.79,.21-.1,.42-.21,.63-.31,.45-.22,.92-.44,1.39-.66,.2-.09,.41-.19,.61-.28,.42-.19,.84-.38,1.27-.56,.29-.13,.59-.25,.89-.38,.4-.17,.81-.34,1.23-.51,.3-.12,.6-.24,.9-.36,.4-.16,.81-.32,1.22-.47,.33-.13,.67-.25,1-.38,.43-.16,.86-.32,1.29-.47,.32-.12,.65-.23,.98-.35,.44-.15,.89-.31,1.34-.46,.28-.1,.57-.19,.86-.29,.47-.16,.95-.31,1.43-.47,.29-.09,.58-.19,.87-.28,.52-.17,1.05-.33,1.58-.5,.26-.08,.51-.16,.77-.24,.55-.17,1.11-.34,1.68-.5,.25-.07,.5-.15,.75-.22,.59-.17,1.19-.34,1.79-.51,.21-.06,.42-.12,.64-.18,.65-.18,1.3-.36,1.97-.54,.17-.04,.33-.09,.5-.13,.66-.17,1.32-.35,1.99-.52,.17-.04,.33-.09,.5-.13,.7-.18,1.4-.36,2.12-.53,.13-.03,.26-.07,.4-.1,.37-.09,.75-.18,1.13-.27-.03-.07-.06-.15-.1-.22-.37,.09-.74,.18-1.1,.27-.13,.03-.26,.06-.39,.1" />
      <path class="cls-15" d="M15.22,36.89v-2.41h.61c.86,0,1.23,.36,1.23,1.17s-.39,1.23-1.25,1.23h-.59m.61-3.05h-1.67v6.05h1.06v-2.36h.52c.7,0,1.17-.09,1.52-.28,.58-.33,.9-.91,.9-1.66,0-.63-.24-1.13-.68-1.44-.36-.24-.74-.32-1.65-.32" />
      <polygon class="cls-15" points="23.82 33.84 22.95 33.84 22.95 38.76 20.43 33.84 19.03 33.84 19.03 39.89 19.91 39.89 19.91 34.88 22.46 39.89 23.82 39.89 23.82 33.84" />
      <path class="cls-15" d="M27.45,39.26c-1.11,0-1.66-.79-1.66-2.38s.58-2.42,1.67-2.42,1.67,.79,1.67,2.35-.58,2.45-1.67,2.45m0-5.53c-1.71,0-2.76,1.22-2.76,3.21s.99,3.04,2.79,3.04,2.75-1.22,2.75-3.27c0-1.89-1.02-2.98-2.79-2.98" />
    </g>
    <filter x="-50.00%" y="-50.00%" width="200.00%" height="200.00%" filterUnits="objectBoundingBox" id="filter25">
      <feColorMatrix type="matrix" values="1 0 0 0 0  0 1 0 0 0  0 0 1 0 0  0 0 0 1 0  " in="SourceGraphic" />
    </filter>
  </defs>
  <g transform="matrix(1 0 0 1 -543 -51 )">
    <g transform="matrix(1.0557432432432432 0 0 1.0557432432432432 543 51.25021114864865 )" clip-path="url(#clip24)" filter="url(#filter25)">
      <g>
        <path class="cls-7" d="M56.04,8.38h8.46c3.66,0,6.42,2.68,6.42,6.23s-2.76,6.23-6.42,6.23h-4.35v5.83h-4.11V8.38Zm4.11,3.87v4.72h4.27c1.3,0,2.28-1.03,2.28-2.36s-.98-2.36-2.28-2.36h-4.27Z" />
        <path class="cls-7" d="M73.14,8.38h5.09l5.14,9.44,5.17-9.44h5.04V26.68h-4.11V14.48l-4.96,9.12h-2.33l-4.93-9.12v12.2h-4.11V8.38Z" />
        <path class="cls-7" d="M97.06,8.38h8.46c3.66,0,6.42,2.68,6.42,6.23s-2.76,6.23-6.42,6.23h-4.35v5.83h-4.11V8.38Zm4.11,3.87v4.72h4.27c1.3,0,2.28-1.03,2.28-2.36s-.98-2.36-2.28-2.36h-4.27Z" />
        <path class="cls-7" d="M125.99,9.92h-5.83v-1.54h13.31v1.54h-5.83V26.68h-1.64V9.92Z" />
        <path class="cls-7" d="M134.05,17.53c0-5.38,4.11-9.47,9.52-9.47s9.55,4.08,9.55,9.47-4.11,9.47-9.55,9.47-9.52-4.08-9.52-9.47Zm17.37,0c0-4.51-3.37-7.88-7.85-7.88s-7.85,3.37-7.85,7.88,3.39,7.88,7.85,7.88,7.85-3.37,7.85-7.88Z" />
        <path class="cls-7" d="M155.82,17.53c0-5.38,4.11-9.47,9.52-9.47s9.55,4.08,9.55,9.47-4.11,9.47-9.55,9.47-9.52-4.08-9.52-9.47Zm17.37,0c0-4.51-3.37-7.88-7.85-7.88s-7.85,3.37-7.85,7.88,3.39,7.88,7.85,7.88,7.85-3.37,7.85-7.88Z" />
        <path class="cls-7" d="M178.6,8.38h1.62V25.14h9.23v1.54h-10.85V8.38Z" />
      </g>
      <g>
        <path class="cls-7" d="M56.18,33.37h2.67c.89,0,1.56,.66,1.56,1.54,0,.63-.37,1.16-.85,1.38,.75,.15,1.26,.81,1.26,1.62,0,.96-.72,1.67-1.69,1.67h-2.95v-6.21Zm.54,.5v2.24h2.02c.6,0,1.11-.49,1.11-1.12s-.48-1.12-1.11-1.12h-2.02Zm0,2.72v2.48h2.3c.7,0,1.22-.54,1.22-1.25s-.52-1.23-1.22-1.23h-2.3Z" />
        <path class="cls-7" d="M63.51,37.2l-2.55-3.83h.64l2.2,3.29,2.19-3.29h.63l-2.55,3.83v2.38h-.56v-2.38Z" />
        <path class="cls-7" d="M69.89,33.37h2.61c1.08,0,1.9,.81,1.9,1.87s-.82,1.88-1.9,1.88h-2.06v2.46h-.55v-6.21Zm.55,.52v2.71h2.05c.76,0,1.33-.58,1.33-1.36s-.58-1.35-1.33-1.35h-2.05Z" />
        <path class="cls-7" d="M75.54,33.37h.59l3.94,5.32v-5.32h.56v6.21h-.6l-3.94-5.32v5.32h-.55v-6.21Z" />
        <path class="cls-7" d="M81.88,36.47c0-1.83,1.4-3.21,3.23-3.21s3.24,1.39,3.24,3.21-1.4,3.21-3.24,3.21-3.23-1.39-3.23-3.21Zm5.9,0c0-1.53-1.14-2.67-2.67-2.67s-2.66,1.14-2.66,2.67,1.15,2.67,2.66,2.67,2.67-1.14,2.67-2.67Z" />
        <path class="cls-7" d="M91.61,36.47c0-1.83,1.4-3.21,3.23-3.21,1.38,0,2.51,.76,2.96,1.9h-.62c-.43-.83-1.3-1.36-2.34-1.36-1.51,0-2.66,1.14-2.66,2.67s1.15,2.67,2.66,2.67c1.39,0,2.46-.94,2.58-2.25h-2.34v-.5h2.92v.18c0,1.78-1.35,3.12-3.16,3.12s-3.23-1.39-3.23-3.21Z" />
        <path class="cls-7" d="M99.26,33.37h2.58c1.04,0,1.84,.77,1.84,1.8s-.79,1.78-1.83,1.78h0l2.02,2.63h-.69l-2-2.63h-1.36v2.63h-.55v-6.21Zm.55,.52v2.58h2.03c.72,0,1.27-.55,1.27-1.29s-.55-1.29-1.27-1.29h-2.03Z" />
        <path class="cls-7" d="M104.56,36.47c0-1.83,1.4-3.21,3.23-3.21s3.24,1.39,3.24,3.21-1.4,3.21-3.24,3.21-3.23-1.39-3.23-3.21Zm5.9,0c0-1.53-1.14-2.67-2.67-2.67s-2.66,1.14-2.66,2.67,1.15,2.67,2.66,2.67,2.67-1.14,2.67-2.67Z" />
        <path class="cls-7" d="M112.13,37.21v-3.84h.56v3.84c0,1.1,.83,1.94,1.94,1.94s1.94-.84,1.94-1.94v-3.84h.56v3.84c0,1.41-1.08,2.48-2.49,2.48s-2.5-1.06-2.5-2.48Z" />
        <path class="cls-7" d="M118.57,33.37h2.61c1.08,0,1.9,.81,1.9,1.87s-.82,1.88-1.9,1.88h-2.06v2.46h-.55v-6.21Zm.55,.52v2.71h2.05c.76,0,1.33-.58,1.33-1.36s-.58-1.35-1.33-1.35h-2.05Z" />
      </g>
      <g>
        <path class="cls-4" d="M41.96,10.71c.26-.07,.52-.13,.79-.2-.25-.43-.5-.84-.77-1.25-.15,.04-.31,.08-.46,.12,.15,.44,.3,.88,.45,1.33" />
        <path class="cls-4" d="M45.94,23.14c0-.22,.02-.43,.02-.65,0-3.58-.79-6.97-2.19-10.02-.38,.09-.75,.18-1.13,.27,1.1,3.37,2.21,6.87,3.3,10.4" />
        <path class="cls-4" d="M42.56,12.51c.36-.09,.73-.18,1.1-.27-.22-.48-.47-.94-.72-1.4-.29,.07-.57,.14-.86,.22,.16,.48,.32,.97,.48,1.45" />
        <path class="cls-4" d="M41.01,7.91c.11,.33,.23,.66,.34,1,.11-.03,.22-.06,.33-.08-.22-.31-.44-.61-.67-.91" />
        <path class="cls-10" d="M38.99,9.55c.69-.19,1.4-.38,2.11-.57-.12-.41-.24-.82-.36-1.22-.71,.19-1.42,.39-2.11,.59,.12,.4,.24,.8,.36,1.2" />
        <path class="cls-10" d="M42.65,22.13c.72,2.51,1.45,5.06,2.19,7.6,.46-1.46,.79-2.98,.96-4.55-.36-1.24-.71-2.46-1.05-3.66-.89-3.1-1.72-5.99-2.51-8.68-.71,.18-1.42,.36-2.12,.53,.86,2.95,1.71,5.92,2.53,8.75" />
        <path class="cls-10" d="M37.9,5.95c.37-.11,.74-.22,1.12-.33-.27-.27-.55-.54-.83-.8-.19,.06-.39,.12-.57,.18,.1,.32,.2,.63,.29,.95" />
        <path class="cls-10" d="M38.45,7.75c.65-.19,1.32-.38,1.99-.56-.27-.33-.55-.64-.84-.95-.5,.14-.99,.29-1.48,.44,.11,.36,.22,.72,.33,1.08" />
        <path class="cls-10" d="M37.31,4.06s.02,.06,.03,.09l.06-.02-.09-.08Z" />
        <path class="cls-10" d="M42.17,12.61c-.14-.49-.29-.98-.43-1.46-.72,.18-1.42,.37-2.12,.55,.14,.48,.28,.96,.43,1.45,.7-.18,1.4-.36,2.12-.53" />
        <path class="cls-10" d="M41.64,10.8c-.13-.45-.27-.9-.4-1.34-.71,.19-1.42,.38-2.11,.57,.13,.44,.26,.88,.39,1.32,.69-.18,1.4-.37,2.12-.55" />
        <path class="cls-2" d="M42.92,34.15c.51-.92,.96-1.87,1.35-2.86-1.72-6.24-3.29-12.34-4.66-17.79-.67,.17-1.33,.35-1.99,.52,1.56,6.23,3.34,13.16,5.29,20.13" />
        <path class="cls-2" d="M35.03,3.02c.2-.08,.4-.16,.6-.24-.22-.15-.45-.3-.67-.45l-.04,.02c.04,.22,.07,.44,.11,.67" />
        <path class="cls-2" d="M38.65,9.64c-.1-.41-.2-.81-.3-1.21-.67,.2-1.32,.4-1.97,.61,.1,.39,.19,.78,.29,1.17,.65-.19,1.31-.39,1.98-.57" />
        <path class="cls-2" d="M35.56,5.72c.08,.31,.15,.61,.23,.92,.64-.22,1.29-.44,1.96-.65-.08-.33-.16-.65-.24-.97-.66,.22-1.31,.45-1.94,.69" />
        <path class="cls-2" d="M35.35,4.85c.63-.24,1.28-.47,1.94-.69-.01-.06-.03-.11-.04-.17-.21-.17-.42-.34-.64-.5-.48,.18-.94,.37-1.4,.56,.05,.26,.09,.53,.14,.79" />
        <path class="cls-2" d="M39.11,11.46c-.11-.45-.22-.89-.33-1.33-.67,.19-1.33,.38-1.98,.57,.11,.43,.22,.87,.33,1.3,.65-.18,1.31-.36,1.98-.54" />
        <path class="cls-2" d="M37.93,6.73c-.66,.21-1.32,.43-1.96,.65,.03,.11,.06,.23,.08,.34,.06,.23,.12,.46,.17,.7,.65-.21,1.3-.41,1.97-.6-.05-.2-.1-.4-.15-.59-.04-.17-.08-.33-.12-.5" />
        <path class="cls-2" d="M39.56,13.27c-.12-.49-.25-.98-.37-1.46-.67,.18-1.33,.36-1.98,.54,.12,.47,.24,.95,.36,1.44,.65-.17,1.32-.35,1.99-.52" />
        <path class="cls-12" d="M36.72,12.12c-.09-.44-.17-.88-.26-1.32-.66,.2-1.31,.4-1.95,.61,.08,.42,.17,.85,.25,1.28,.64-.19,1.29-.38,1.96-.57" />
        <path class="cls-12" d="M37.08,13.92c-.1-.49-.2-.97-.29-1.45-.67,.19-1.32,.38-1.96,.57,.09,.47,.19,.94,.29,1.42,.65-.18,1.3-.36,1.97-.54" />
        <path class="cls-12" d="M38.36,28.85c.69,2.79,1.45,5.72,2.27,8.7,.54-.67,1.04-1.37,1.51-2.09-1.97-7.34-3.66-14.72-5.01-21.3-.66,.18-1.32,.36-1.97,.54,.95,4.63,2.04,9.48,3.19,14.16" />
        <path class="cls-12" d="M33.59,6.53c.05,.29,.1,.58,.16,.87,.63-.24,1.28-.48,1.93-.71-.06-.32-.11-.63-.17-.94-.66,.25-1.29,.51-1.92,.79" />
        <path class="cls-12" d="M33.11,1.99c.23-.13,.46-.24,.7-.36-.13-.07-.25-.15-.38-.22-.11,.08-.22,.16-.33,.24,0,.11,.01,.23,.02,.35" />
        <path class="cls-12" d="M33.89,8.15c.06,.33,.12,.66,.19,.99,.64-.22,1.29-.44,1.95-.65-.07-.36-.13-.71-.2-1.06-.66,.23-1.3,.47-1.93,.72" />
        <path class="cls-12" d="M36.36,10.31c-.08-.4-.15-.79-.23-1.18-.66,.21-1.31,.44-1.94,.66,.07,.37,.14,.75,.22,1.13,.64-.21,1.29-.41,1.95-.61" />
        <path class="cls-12" d="M33.19,3.29c.01,.18,.03,.36,.04,.55,.59-.29,1.19-.56,1.81-.82-.04-.22-.08-.45-.11-.67-.6,.29-1.18,.6-1.73,.94" />
        <path class="cls-12" d="M33.31,4.94v.07c.04,.2,.08,.41,.11,.62,.63-.27,1.27-.53,1.92-.78-.05-.27-.09-.53-.14-.79-.65,.28-1.28,.57-1.9,.88" />
        <path class="cls-8" d="M33.99,11.06c-.05-.39-.1-.77-.15-1.14-.6,.21-1.19,.43-1.76,.66,.04,.36,.09,.73,.14,1.08,.58-.2,1.17-.4,1.77-.59" />
        <path class="cls-8" d="M33.58,20.49c.71,3.94,1.53,7.86,2.43,11.68,.79,1.45,1.23,3.04,1.23,4.71,0,.06,0,.12,0,.18,.28,1.07,.57,2.13,.86,3.18,.52-.47,1.01-.97,1.49-1.48-2.22-8.2-3.94-16.57-5.05-23.88-.61,.17-1.2,.34-1.79,.51,.35,2.3,.67,4.13,.84,5.11" />
        <path class="cls-8" d="M31.89,8.97c.04,.31,.07,.63,.11,.94,.58-.22,1.17-.44,1.77-.65-.04-.34-.08-.68-.12-1.01-.6,.24-1.18,.48-1.76,.72" />
        <path class="cls-8" d="M34.49,14.64c-.07-.48-.14-.96-.21-1.43-.61,.18-1.2,.36-1.78,.55,.07,.48,.14,.94,.2,1.39,.59-.17,1.19-.34,1.79-.51" />
        <path class="cls-8" d="M34.23,12.84c-.06-.43-.12-.86-.18-1.29-.6,.2-1.19,.39-1.77,.6,.06,.42,.11,.83,.17,1.24,.58-.18,1.18-.37,1.78-.55" />
        <path class="cls-8" d="M31.72,7.4c.03,.26,.05,.53,.08,.79,.57-.25,1.16-.49,1.76-.72-.03-.3-.06-.59-.09-.89-.59,.26-1.18,.53-1.75,.82" />
        <path class="cls-8" d="M31.66,4.29c0,.13-.01,.25-.02,.38,.52-.29,1.05-.57,1.59-.83-.01-.18-.03-.37-.04-.55-.53,.32-1.04,.65-1.53,1" />
        <path class="cls-8" d="M31.77,2.73v.08c.43-.28,.88-.56,1.34-.82,0-.12-.01-.23-.02-.35-.46,.34-.9,.7-1.32,1.08" />
        <path class="cls-8" d="M33.31,4.94c-.59,.3-1.16,.62-1.72,.96,0,.05,0,.09,0,.14,.01,.14,.03,.28,.04,.42,.57-.28,1.15-.55,1.75-.8-.02-.22-.04-.43-.06-.64v-.07Z" />
        <path class="cls-11" d="M31.58,7.47c-.58,.29-1.14,.6-1.69,.91,0,.22,0,.44,0,.66,.55-.26,1.12-.52,1.69-.77,0-.27,0-.54,0-.81" />
        <path class="cls-11" d="M31.71,11.83c-.02-.37-.04-.73-.05-1.09-.57,.22-1.13,.45-1.68,.69,.02,.34,.03,.67,.05,1.02,.55-.21,1.11-.41,1.68-.61" />
        <path class="cls-11" d="M34.02,29.52c-.95-4.85-1.64-9.58-2.04-13.92-.57,.17-1.13,.33-1.68,.5,.35,3.72,.92,7.68,1.66,11.72,.75,.51,1.44,1.08,2.06,1.7" />
        <path class="cls-11" d="M31.82,13.59c-.03-.42-.06-.84-.08-1.25-.57,.2-1.13,.4-1.68,.61,.03,.39,.05,.79,.08,1.19,.55-.18,1.11-.36,1.68-.55" />
        <path class="cls-11" d="M31.96,15.36c-.04-.47-.08-.94-.12-1.4-.57,.18-1.13,.36-1.68,.55,.04,.45,.07,.9,.12,1.36,.55-.17,1.11-.34,1.68-.5" />
        <path class="cls-11" d="M36.82,41.3c-.08-.3-.17-.61-.25-.91-.24,.61-.53,1.19-.88,1.75,.39-.27,.77-.55,1.14-.85" />
        <path class="cls-11" d="M29.91,9.88c0,.28,.02,.56,.03,.85,.55-.23,1.11-.45,1.69-.68-.01-.32-.02-.64-.03-.95-.57,.25-1.14,.52-1.69,.78" />
        <path class="cls-11" d="M30.3,5.34s-.02,.09-.03,.14c.44-.28,.9-.55,1.36-.81,0-.13,.01-.25,.02-.38-.47,.34-.92,.69-1.35,1.05" />
        <path class="cls-11" d="M31.59,5.9c-.53,.32-1.05,.64-1.56,.99-.02,.14-.04,.28-.06,.43,.52-.29,1.06-.56,1.61-.83,0-.15,0-.3,0-.45,0-.05,0-.09,0-.14" />
        <path class="cls-11" d="M31.45,3.03c.1-.07,.2-.14,.31-.21v-.08c-.1,.1-.21,.2-.31,.3" />
        <path class="cls-18" d="M28.04,10.84c-.02,.24-.03,.49-.04,.73,.53-.24,1.08-.48,1.63-.72,.02-.29,.04-.58,.06-.87-.56,.28-1.11,.56-1.65,.85" />
        <path class="cls-18" d="M30.4,26.88c-.5-3.64-.8-7.21-.87-10.54-.53,.16-1.06,.33-1.58,.5,.09,2.96,.35,6.09,.76,9.28,.59,.23,1.15,.48,1.69,.76" />
        <path class="cls-18" d="M29.53,16.09c0-.46-.01-.92-.01-1.37-.54,.18-1.07,.37-1.59,.55,0,.43,.01,.87,.02,1.31,.52-.17,1.05-.33,1.58-.5" />
        <path class="cls-18" d="M28.14,9.44c-.01,.17-.03,.34-.04,.5,.54-.29,1.1-.57,1.67-.84,.02-.24,.05-.47,.07-.7-.58,.33-1.15,.68-1.7,1.04" />
        <path class="cls-18" d="M27.92,14.89c.52-.18,1.05-.37,1.6-.55,0-.4,0-.8,.02-1.2-.54,.21-1.08,.42-1.61,.63,0,.37,0,.75,0,1.12" />
        <path class="cls-18" d="M29.55,12.61c.01-.35,.03-.69,.04-1.03-.55,.24-1.09,.48-1.63,.73-.01,.31-.02,.62-.03,.93,.53-.21,1.07-.42,1.61-.62" />
        <path class="cls-18" d="M28.51,8.02c-.02,.05-.03,.11-.05,.16,.49-.3,1-.59,1.51-.87,.02-.14,.04-.29,.06-.43-.53,.36-1.03,.74-1.53,1.13" />
        <path class="cls-18" d="M30.89,.22c-.19-.08-.38-.15-.57-.22-.31,.69-.59,1.43-.84,2.22,.43-.72,.9-1.39,1.4-2" />
        <path class="cls-18" d="M29.8,5.79c.16-.11,.32-.21,.48-.31,0-.05,.02-.09,.03-.14-.17,.15-.34,.3-.51,.45" />
        <path class="cls-3" d="M27.22,15.14c.03-.38,.07-.76,.12-1.14-.5,.2-.99,.41-1.48,.62-.04,.35-.07,.7-.1,1.05,.48-.18,.96-.36,1.46-.54" />
        <path class="cls-3" d="M27.41,13.45c.04-.32,.08-.63,.13-.94-.51,.24-1.02,.49-1.51,.74-.04,.27-.07,.54-.1,.82,.49-.21,.98-.42,1.48-.62" />
        <path class="cls-3" d="M26.23,11.86c-.03,.2-.06,.39-.09,.59,.5-.25,1.01-.49,1.53-.73,.04-.26,.09-.51,.14-.76-.54,.29-1.06,.59-1.57,.9" />
        <path class="cls-3" d="M27.09,16.86c.03-.44,.06-.89,.09-1.32-.49,.18-.98,.36-1.45,.53-.03,.42-.06,.84-.08,1.26,.47-.16,.95-.32,1.44-.47" />
        <path class="cls-3" d="M26.71,10.42c-.05,.12-.1,.24-.14,.37,.47-.27,.95-.53,1.44-.79,.04-.18,.08-.37,.13-.55-.49,.32-.96,.64-1.42,.97" />
        <path class="cls-3" d="M25.75,25.26c.49,.1,.98,.22,1.45,.35-.22-2.91-.27-5.77-.12-8.5-.48,.16-.96,.31-1.43,.47-.11,2.44-.08,5.01,.11,7.68" />
        <path class="cls-3" d="M27.77,8.63c.23-.15,.46-.3,.7-.44,.02-.05,.03-.11,.05-.16-.25,.2-.5,.4-.74,.61" />
        <path class="cls-3" d="M32.13,.76c-.41-.19-.83-.37-1.25-.54-.5,.61-.97,1.27-1.4,2-.53,.88-1,1.85-1.43,2.89,1.14-1.69,2.5-3.16,4.08-4.35" />
        <path class="cls-19" d="M25.13,15.92c.07-.36,.15-.72,.23-1.07-.48,.21-.96,.43-1.43,.65-.07,.32-.13,.64-.19,.96,.45-.18,.91-.36,1.38-.54" />
        <path class="cls-19" d="M24.55,12.93c-.04,.13-.07,.26-.11,.4,.5-.27,1.01-.54,1.54-.8,.07-.22,.13-.43,.2-.64-.56,.34-1.1,.69-1.63,1.04" />
        <path class="cls-19" d="M23,24.92c.43,.02,.85,.06,1.27,.1,0-2.46,.18-4.86,.52-7.15-.45,.15-.9,.31-1.34,.46-.29,2.13-.43,4.33-.45,6.58" />
        <path class="cls-19" d="M24.83,17.62c.07-.43,.14-.86,.22-1.28-.47,.18-.93,.36-1.37,.54-.07,.4-.13,.8-.19,1.2,.44-.15,.89-.31,1.34-.46" />
        <path class="cls-19" d="M25.5,14.25c.07-.28,.14-.57,.22-.85-.51,.26-1.02,.53-1.51,.81-.06,.23-.11,.46-.16,.69,.47-.22,.95-.43,1.44-.65" />
        <path class="cls-19" d="M25.26,11.54l-.03,.05c.44-.27,.88-.54,1.34-.8,.05-.12,.09-.25,.14-.37-.5,.36-.98,.73-1.45,1.12" />
        <path class="cls-19" d="M31.45,3.03c.1-.1,.21-.2,.32-.3,.42-.38,.86-.75,1.32-1.08,.11-.08,.22-.16,.33-.24-.42-.23-.85-.44-1.29-.64-1.58,1.2-2.94,2.67-4.08,4.35-.47,.7-.91,1.43-1.31,2.2,1.33-1.61,2.9-3.06,4.71-4.29" />
        <path class="cls-1" d="M22.54,18.41c.11-.41,.22-.81,.34-1.22-.46,.19-.92,.38-1.36,.57-.1,.37-.2,.74-.28,1.12,.43-.16,.86-.32,1.31-.48" />
        <path class="cls-1" d="M21.46,24.9c.17-2.11,.5-4.19,1.01-6.21-.44,.16-.87,.32-1.29,.47-.43,1.9-.72,3.84-.87,5.8,.38-.03,.77-.05,1.16-.06" />
        <path class="cls-1" d="M22.94,14.06c-.03,.05-.07,.11-.1,.16,.48-.28,.97-.56,1.47-.83,.07-.15,.13-.3,.2-.44-.54,.36-1.07,.73-1.57,1.11" />
        <path class="cls-1" d="M29.8,5.79c.17-.15,.33-.3,.51-.45,.43-.37,.88-.72,1.35-1.05,.49-.35,1-.68,1.53-1,.56-.33,1.13-.65,1.73-.94l.04-.02c-.38-.24-.77-.48-1.16-.7-.23,.12-.47,.24-.7,.36-.46,.26-.91,.53-1.35,.82-.11,.07-.21,.14-.31,.21-1.81,1.23-3.38,2.67-4.71,4.29-.72,.87-1.38,1.79-1.96,2.75,1.48-1.61,3.15-3.04,5.02-4.27" />
        <path class="cls-1" d="M23.59,15.11c.09-.24,.19-.48,.28-.72-.55,.31-1.08,.62-1.6,.94-.06,.17-.12,.33-.18,.5,.49-.24,.98-.48,1.49-.72" />
        <path class="cls-1" d="M23.02,16.75c.1-.33,.22-.66,.33-.98-.5,.24-.98,.48-1.46,.72-.09,.28-.18,.56-.26,.84,.45-.19,.91-.39,1.38-.58" />
        <path class="cls-1" d="M25.1,11.67s.08-.05,.13-.08l.03-.05c-.05,.04-.1,.09-.16,.13" />
        <path class="cls-16" d="M18.69,25.17c.32-1.97,.82-3.86,1.48-5.63-.41,.16-.82,.32-1.22,.47-.58,1.71-1.01,3.51-1.3,5.37,.34-.08,.69-.15,1.04-.21" />
        <path class="cls-16" d="M20.28,19.25c.15-.39,.3-.77,.47-1.14-.45,.2-.89,.4-1.32,.6-.13,.34-.25,.68-.37,1.02,.4-.16,.81-.32,1.23-.47" />
        <path class="cls-16" d="M20.97,17.62c.13-.29,.27-.58,.42-.87-.51,.26-1,.53-1.48,.8-.1,.22-.19,.45-.28,.67,.44-.2,.89-.4,1.35-.6" />
        <path class="cls-16" d="M21.78,16c.1-.18,.21-.36,.31-.54-.56,.35-1.1,.71-1.63,1.07-.07,.09-.13,.18-.19,.26,.49-.27,1-.53,1.51-.79" />
        <path class="cls-16" d="M22.36,14.51c.16-.1,.32-.19,.49-.29,.03-.05,.07-.11,.1-.16-.2,.15-.39,.3-.59,.44" />
        <path class="cls-16" d="M27.77,8.63c.24-.21,.49-.41,.74-.61,.49-.39,1-.77,1.53-1.13,.5-.34,1.02-.67,1.56-.99,.56-.33,1.13-.66,1.72-.96,.61-.31,1.25-.6,1.9-.88,.46-.2,.92-.38,1.4-.56-.32-.25-.65-.49-.98-.72-.2,.08-.4,.15-.6,.24-.62,.26-1.22,.53-1.81,.82-.54,.26-1.07,.54-1.59,.83-.46,.26-.92,.53-1.36,.81-.16,.1-.32,.21-.48,.31-1.87,1.24-3.54,2.66-5.02,4.27-.74,.8-1.42,1.66-2.06,2.56,1.5-1.47,3.19-2.8,5.05-3.99" />
        <path class="cls-5" d="M18.22,20.06c.19-.36,.39-.71,.59-1.06-.48,.23-.94,.45-1.39,.68-.16,.3-.31,.6-.45,.9,.41-.17,.83-.34,1.25-.52" />
        <path class="cls-5" d="M15.98,25.86c.49-1.91,1.18-3.74,2.07-5.48-.42,.17-.83,.34-1.23,.51-.79,1.71-1.41,3.49-1.84,5.35,.33-.13,.66-.26,1-.37" />
        <path class="cls-5" d="M19.14,18.44c.15-.25,.32-.49,.48-.74-.57,.32-1.12,.64-1.65,.97-.09,.15-.18,.3-.26,.46,.47-.23,.94-.46,1.43-.69" />
        <path class="cls-5" d="M25.1,11.67c.05-.04,.1-.09,.16-.13,.47-.38,.95-.76,1.45-1.12,.46-.33,.94-.66,1.42-.97h0c.55-.36,1.12-.71,1.7-1.04l.04-.03c.55-.31,1.11-.62,1.69-.91,.05-.02,.1-.05,.14-.07,.57-.28,1.15-.55,1.75-.82,.04-.02,.08-.04,.12-.05,.63-.27,1.27-.54,1.92-.79l.05-.02c.64-.24,1.28-.47,1.94-.69,.03-.01,.07-.02,.1-.03,.19-.06,.38-.12,.57-.18-.25-.23-.52-.46-.78-.68l-.06,.02-.05,.02c-.66,.22-1.31,.45-1.94,.69-.66,.25-1.29,.51-1.92,.78l-.05,.02c-.6,.26-1.18,.53-1.75,.8l-.05,.02c-.55,.27-1.08,.54-1.61,.83-.51,.28-1.02,.57-1.51,.87-.24,.14-.46,.3-.7,.44-1.86,1.2-3.55,2.53-5.05,3.99-.8,.78-1.55,1.6-2.25,2.46,1.4-1.21,2.94-2.35,4.63-3.41" />
        <path class="cls-5" d="M20.26,16.79c.06-.09,.13-.18,.19-.26-.35,.24-.69,.48-1.03,.73,.28-.16,.55-.31,.84-.46" />
        <path class="cls-14" d="M16.17,20.91c.23-.32,.46-.64,.7-.96-.53,.27-1.04,.54-1.53,.81-.16,.24-.31,.47-.47,.71,.42-.19,.85-.38,1.29-.57" />
        <path class="cls-14" d="M13.02,27.18c.68-2.08,1.66-4.05,2.92-5.92-.43,.19-.86,.38-1.27,.56-1.15,1.89-2.03,3.88-2.63,5.97,.32-.22,.65-.42,.99-.61" />
        <path class="cls-14" d="M17.42,19.28c.15-.18,.3-.36,.45-.54-.47,.29-.92,.58-1.36,.87-.11,.1-.21,.2-.31,.29,.4-.21,.8-.42,1.22-.63" />
        <path class="cls-14" d="M22.36,14.51c.19-.15,.39-.3,.59-.44,.51-.38,1.03-.75,1.57-1.11l.03-.02c.53-.35,1.07-.7,1.63-1.04l.05-.03c.51-.31,1.04-.6,1.57-.9,.08-.04,.15-.08,.23-.12,.54-.29,1.09-.57,1.65-.85,.07-.04,.15-.07,.22-.11,.55-.27,1.11-.53,1.69-.78,.1-.04,.19-.08,.29-.13,.57-.25,1.16-.49,1.76-.72,.08-.03,.16-.06,.24-.09,.63-.25,1.28-.48,1.93-.72,.05-.02,.1-.04,.15-.05,.64-.22,1.29-.44,1.96-.65,.06-.02,.13-.04,.19-.06,.49-.15,.98-.3,1.48-.44-.19-.21-.39-.41-.59-.62-.37,.11-.75,.22-1.12,.33-.05,.02-.1,.03-.15,.05-.66,.21-1.32,.42-1.96,.65-.04,.01-.07,.03-.11,.04-.66,.23-1.3,.47-1.93,.71-.06,.02-.13,.05-.19,.07-.6,.23-1.18,.47-1.76,.72-.07,.03-.15,.06-.22,.09-.57,.25-1.14,.5-1.69,.77-.04,.02-.08,.04-.12,.06-.57,.27-1.12,.55-1.67,.84-.03,.02-.06,.03-.09,.05-.49,.26-.97,.52-1.44,.79-.46,.26-.9,.53-1.34,.8-.04,.03-.08,.05-.13,.08-1.69,1.06-3.24,2.2-4.63,3.41-.95,.83-1.84,1.68-2.66,2.57,1.38-1.1,2.9-2.15,4.54-3.14" />
        <path class="cls-6" d="M14.04,22.11c-.48,.22-.94,.44-1.39,.66-2.1,2.69-3.52,5.58-4.21,8.59,.3-.45,.63-.89,1-1.3,.89-2.82,2.44-5.48,4.61-7.95" />
        <path class="cls-6" d="M15.28,19.86c1.27-.9,2.65-1.76,4.15-2.6,.34-.24,.68-.49,1.03-.73,.53-.36,1.07-.72,1.63-1.07,.07-.04,.13-.08,.19-.12,.52-.32,1.05-.63,1.6-.94,.11-.06,.23-.12,.34-.19,.49-.27,.99-.54,1.51-.81,.1-.05,.2-.1,.3-.16,.5-.25,1-.5,1.51-.74,.14-.07,.28-.13,.42-.2,.53-.25,1.07-.49,1.63-.73,.13-.05,.25-.11,.38-.16,.55-.23,1.11-.46,1.68-.69,.14-.05,.28-.11,.42-.16,.58-.22,1.17-.44,1.76-.66,.12-.04,.24-.08,.35-.13,.64-.23,1.29-.45,1.94-.66,.08-.03,.17-.06,.25-.08,.65-.21,1.3-.41,1.97-.61,.09-.03,.18-.06,.28-.08,.69-.2,1.39-.4,2.11-.59,.04-.01,.09-.02,.13-.03-.14-.18-.28-.36-.43-.54-.67,.18-1.34,.37-1.99,.56-.08,.02-.17,.05-.25,.07-.67,.2-1.32,.4-1.97,.6-.07,.02-.14,.05-.22,.07-.66,.21-1.31,.43-1.95,.65-.11,.04-.21,.08-.31,.11-.6,.21-1.19,.43-1.77,.65-.12,.05-.25,.1-.37,.14-.57,.22-1.13,.45-1.69,.68-.1,.04-.21,.09-.31,.13-.55,.23-1.1,.47-1.63,.72-.11,.05-.22,.1-.33,.15-.52,.24-1.03,.48-1.53,.73-.05,.03-.11,.05-.16,.08-.52,.26-1.04,.53-1.54,.8-.04,.02-.08,.04-.13,.07-.5,.27-.99,.55-1.47,.83-.16,.1-.33,.19-.49,.29-1.65,.99-3.16,2.04-4.54,3.14-.59,.47-1.17,.95-1.72,1.45-.28,.25-.55,.51-.81,.77" />
        <path class="cls-6" d="M12.99,22.35c.46-.22,.94-.45,1.43-.67,.27-.29,.55-.58,.83-.87-.63,.35-1.24,.7-1.81,1.05-.05,.04-.09,.08-.14,.11-.1,.12-.2,.25-.31,.37" />
        <path class="cls-6" d="M16.2,19.9c.11-.1,.21-.2,.31-.29-.28,.19-.56,.38-.84,.57,.17-.09,.35-.18,.52-.28" />
        <path class="cls-9" d="M4.73,36.09c-.04,1.09,.05,2.19,.24,3.29,.21,.21,.43,.42,.65,.62-.3-1.3-.43-2.6-.39-3.89,.16-4.7,2.48-9.08,6.79-13.02-.52,.26-1.03,.52-1.52,.79-3.66,3.74-5.63,7.84-5.77,12.22" />
        <path class="cls-9" d="M13.29,21.98s.09-.08,.14-.11c-.67,.4-1.3,.8-1.89,1.21,.36-.19,.74-.37,1.12-.56,.21-.18,.42-.36,.64-.54" />
        <path class="cls-9" d="M38.65,9.64c-.67,.19-1.33,.38-1.98,.57-.11,.03-.21,.06-.31,.1-.66,.2-1.31,.4-1.95,.61-.14,.05-.28,.09-.43,.14-.6,.2-1.19,.39-1.77,.59-.17,.06-.34,.12-.51,.17-.57,.2-1.13,.4-1.68,.61-.16,.06-.32,.12-.48,.18-.55,.21-1.08,.41-1.61,.62-.18,.07-.35,.14-.53,.21-.5,.2-1,.41-1.48,.62-.14,.06-.28,.12-.42,.18-.49,.21-.97,.43-1.44,.65-.16,.07-.31,.14-.46,.22-.51,.24-1,.48-1.49,.72-.11,.06-.22,.11-.33,.17-.52,.26-1.02,.53-1.51,.79-.28,.15-.56,.31-.84,.46-1.49,.84-2.87,1.71-4.15,2.6-1.02,.72-1.97,1.46-2.85,2.21,1-.63,2.07-1.26,3.24-1.89,.27-.19,.55-.38,.84-.57,.44-.29,.89-.58,1.36-.87,.03-.02,.07-.04,.1-.06,.53-.33,1.09-.65,1.65-.97,.09-.05,.19-.11,.29-.16,.48-.27,.98-.53,1.48-.8,.17-.09,.33-.17,.5-.26,.48-.24,.96-.48,1.46-.72,.19-.09,.38-.18,.58-.27,.47-.22,.94-.43,1.43-.65,.17-.07,.34-.15,.51-.22,.48-.21,.98-.42,1.48-.62,.19-.08,.39-.16,.58-.24,.53-.21,1.06-.42,1.61-.63,.17-.07,.35-.13,.52-.2,.55-.21,1.11-.41,1.68-.61,.18-.06,.36-.13,.54-.19,.58-.2,1.17-.4,1.77-.6,.15-.05,.3-.1,.46-.15,.64-.21,1.29-.41,1.95-.61,.11-.03,.23-.07,.34-.1,.65-.19,1.31-.39,1.98-.57,.12-.03,.24-.07,.36-.1,.69-.19,1.4-.38,2.11-.57,.09-.02,.18-.05,.27-.07,.15-.04,.31-.08,.46-.12-.1-.15-.2-.29-.3-.44-.11,.03-.22,.06-.33,.08-.08,.02-.17,.04-.25,.07-.71,.19-1.42,.38-2.11,.57-.11,.03-.22,.06-.34,.1" />
        <path class="cls-13" d="M1.65,35.19c.1,.16,.2,.31,.3,.47,.46-3.43,2.59-7.45,8.17-11.58-.72,.39-1.41,.79-2.07,1.19-4.12,3.52-5.89,6.93-6.4,9.92" />
        <path class="cls-13" d="M41.64,10.8c-.72,.18-1.42,.37-2.12,.55-.14,.04-.28,.08-.42,.11-.67,.18-1.33,.36-1.98,.54-.13,.04-.27,.08-.4,.11-.67,.19-1.32,.38-1.96,.57-.18,.05-.35,.1-.53,.16-.6,.18-1.2,.36-1.78,.55-.21,.07-.42,.13-.63,.2-.57,.18-1.13,.36-1.68,.55-.21,.07-.42,.14-.62,.21-.54,.18-1.07,.37-1.6,.55-.23,.08-.47,.17-.69,.25-.5,.18-.98,.36-1.46,.54-.21,.08-.43,.16-.64,.24-.47,.18-.93,.36-1.38,.54-.24,.1-.49,.19-.73,.29-.47,.19-.93,.38-1.38,.58-.22,.1-.45,.19-.66,.29-.46,.2-.91,.4-1.35,.6-.16,.07-.32,.15-.48,.22-.49,.23-.97,.46-1.43,.69-.1,.05-.2,.1-.29,.14-.42,.21-.82,.42-1.22,.63-.18,.09-.35,.18-.52,.28-1.17,.63-2.25,1.26-3.24,1.89-1.19,.76-2.27,1.51-3.23,2.26,.74-.42,1.52-.84,2.34-1.26,.6-.4,1.23-.8,1.89-1.21,.58-.35,1.18-.7,1.81-1.05,.03-.02,.06-.03,.09-.05,.49-.27,1-.54,1.53-.81,.18-.09,.36-.19,.55-.28,.45-.23,.92-.45,1.39-.68,.2-.1,.4-.19,.61-.29,.43-.2,.87-.4,1.32-.6,.25-.11,.51-.23,.77-.34,.44-.19,.9-.38,1.36-.57,.26-.11,.52-.21,.79-.32,.45-.18,.91-.36,1.37-.54,.23-.09,.46-.18,.69-.26,.47-.18,.96-.36,1.45-.53,.24-.09,.48-.18,.73-.26,.52-.18,1.05-.37,1.59-.55,.22-.07,.43-.15,.65-.22,.55-.18,1.11-.36,1.68-.55,.22-.07,.43-.14,.65-.21,.58-.18,1.18-.37,1.78-.55,.18-.05,.37-.11,.55-.16,.64-.19,1.29-.38,1.96-.57,.14-.04,.28-.08,.42-.12,.65-.18,1.31-.36,1.98-.54,.14-.04,.29-.08,.43-.12,.69-.18,1.4-.37,2.12-.55,.11-.03,.22-.06,.34-.08,.29-.07,.57-.14,.86-.22-.06-.11-.13-.22-.19-.33-.27,.07-.53,.13-.79,.2-.11,.03-.22,.05-.32,.08" />
        <path class="cls-17" d="M42.17,12.61c-.72,.18-1.42,.36-2.12,.53-.16,.04-.33,.08-.49,.13-.67,.17-1.33,.35-1.99,.52-.16,.04-.33,.09-.49,.13-.66,.18-1.32,.36-1.97,.54-.21,.06-.42,.12-.62,.17-.61,.17-1.2,.34-1.79,.51-.25,.07-.49,.14-.74,.21-.57,.17-1.13,.33-1.68,.5-.25,.08-.51,.15-.76,.23-.54,.16-1.06,.33-1.58,.5-.28,.09-.57,.18-.85,.27-.49,.16-.97,.31-1.44,.47-.28,.09-.55,.19-.83,.28-.45,.15-.9,.31-1.34,.46-.32,.11-.63,.22-.94,.34-.44,.16-.88,.32-1.31,.48-.32,.12-.64,.24-.96,.36-.41,.16-.83,.32-1.23,.47-.28,.11-.56,.22-.83,.33-.42,.17-.84,.34-1.25,.52-.27,.11-.54,.23-.8,.34-.44,.19-.87,.38-1.29,.57-.15,.07-.31,.14-.46,.21-.49,.22-.96,.44-1.43,.67-.11,.05-.22,.11-.33,.16-.38,.18-.75,.37-1.12,.56-.82,.42-1.6,.84-2.34,1.26-4.37,2.48-7.43,5.06-9.2,7.72,.04,.08,.08,.17,.11,.25,1.56-2.42,4.21-4.77,7.94-7.04,.66-.4,1.35-.8,2.07-1.19,.13-.07,.25-.14,.38-.2,.49-.26,1-.52,1.52-.79,.21-.1,.42-.21,.63-.31,.45-.22,.92-.44,1.39-.66,.2-.09,.41-.19,.61-.28,.42-.19,.84-.38,1.27-.56,.29-.13,.59-.25,.89-.38,.4-.17,.81-.34,1.23-.51,.3-.12,.6-.24,.9-.36,.4-.16,.81-.32,1.22-.47,.33-.13,.67-.25,1-.38,.43-.16,.86-.32,1.29-.47,.32-.12,.65-.23,.98-.35,.44-.15,.89-.31,1.34-.46,.28-.1,.57-.19,.86-.29,.47-.16,.95-.31,1.43-.47,.29-.09,.58-.19,.87-.28,.52-.17,1.05-.33,1.58-.5,.26-.08,.51-.16,.77-.24,.55-.17,1.11-.34,1.68-.5,.25-.07,.5-.15,.75-.22,.59-.17,1.19-.34,1.79-.51,.21-.06,.42-.12,.64-.18,.65-.18,1.3-.36,1.97-.54,.17-.04,.33-.09,.5-.13,.66-.17,1.32-.35,1.99-.52,.17-.04,.33-.09,.5-.13,.7-.18,1.4-.36,2.12-.53,.13-.03,.26-.07,.4-.1,.37-.09,.75-.18,1.13-.27-.03-.07-.06-.15-.1-.22-.37,.09-.74,.18-1.1,.27-.13,.03-.26,.06-.39,.1" />
        <path class="cls-15" d="M15.22,36.89v-2.41h.61c.86,0,1.23,.36,1.23,1.17s-.39,1.23-1.25,1.23h-.59m.61-3.05h-1.67v6.05h1.06v-2.36h.52c.7,0,1.17-.09,1.52-.28,.58-.33,.9-.91,.9-1.66,0-.63-.24-1.13-.68-1.44-.36-.24-.74-.32-1.65-.32" />
        <polygon class="cls-15" points="23.82 33.84 22.95 33.84 22.95 38.76 20.43 33.84 19.03 33.84 19.03 39.89 19.91 39.89 19.91 34.88 22.46 39.89 23.82 39.89 23.82 33.84" />
        <path class="cls-15" d="M27.45,39.26c-1.11,0-1.66-.79-1.66-2.38s.58-2.42,1.67-2.42,1.67,.79,1.67,2.35-.58,2.45-1.67,2.45m0-5.53c-1.71,0-2.76,1.22-2.76,3.21s.99,3.04,2.79,3.04,2.75-1.22,2.75-3.27c0-1.89-1.02-2.98-2.79-2.98" />
      </g>
    </g>
  </g>
</svg>